<?xml version="1.0" encoding="UTF-8"?><svg id="Layer_1" xmlns="http://www.w3.org/2000/svg" viewBox="0 0 351.64 206.7"><defs><style>.cls-1{fill:#fff;}</style></defs><g id="cloud"><path class="cls-1" d="M281.92,206.7H69.75C31.31,206.78,.08,175.68,0,137.24c-.08-38.44,31.02-69.67,69.46-69.75,2.9,0,5.79,.17,8.66,.52C96.15,15.44,153.38-12.56,205.95,5.47c29.66,10.17,52.89,33.59,62.81,63.33,4.37-.87,8.81-1.3,13.27-1.31,38.44,0,69.6,31.16,69.6,69.6s-31.16,69.6-69.6,69.6h-.11ZM69.75,82.44c-30.18,0-54.65,24.47-54.65,54.65s24.47,54.65,54.65,54.65h212.17c30.18-.25,54.45-24.91,54.2-55.09s-24.91-54.45-55.09-54.2c-5.18,.04-10.33,.82-15.29,2.31-1.96,.61-4.08,.4-5.87-.6-1.85-.98-3.21-2.69-3.74-4.71-11.72-45.84-58.38-73.51-104.23-61.79-29.92,7.65-53.41,30.81-61.48,60.63-1.04,3.87-4.95,6.22-8.86,5.35-3.88-.84-7.84-1.24-11.81-1.2Z"/></g><path class="cls-1" d="M175.82,103.35c19.99,0,36.19-16.2,36.19-36.19s-16.2-36.19-36.19-36.19-36.19,16.2-36.19,36.19,16.2,36.19,36.19,36.19Zm-33.93,47.5c0,3.76,3.02,6.79,6.79,6.79s6.79-3.02,6.79-6.79-3.02-6.79-6.79-6.79-6.79,3.02-6.79,6.79Zm61.07-38.28v13.85c10.32,2.09,18.09,11.25,18.09,22.16v11.79c0,2.15-1.53,4.01-3.65,4.44l-9.1,1.81c-1.22,.25-2.4-.54-2.66-1.78l-.88-4.44c-.25-1.22,.54-2.43,1.78-2.66l5.46-1.1v-8.06c0-17.75-27.14-18.4-27.14,.54v7.55l5.46,1.1c1.22,.25,2.01,1.44,1.78,2.66l-.88,4.44c-.25,1.22-1.44,2.01-2.66,1.78l-8.82-1.19c-2.23-.31-3.9-2.21-3.9-4.5v-12.38c0-10.91,7.77-20.04,18.09-22.16v-12.78c-.62,.2-1.24,.31-1.87,.54-5.09,1.78-10.55,2.77-16.23,2.77s-11.14-.99-16.23-2.77c-2.09-.74-4.21-1.19-6.39-1.47v23.07c6.53,1.95,11.31,7.94,11.31,15.1,0,8.74-7.1,15.83-15.83,15.83s-15.83-7.1-15.83-15.83c0-7.15,4.78-13.15,11.31-15.1v-22.73c-17.98,3.02-31.69,18.52-31.69,37.35v12.67c0,6.98,5.68,12.67,12.67,12.67h101.32c6.98,0,12.67-5.68,12.67-12.67v-12.67c0-20.36-16.06-36.84-36.19-37.83h0Z"/></svg>